<svg xmlns="http://www.w3.org/2000/svg" viewBox="0 0 251.74 48.05"><defs><style>.cls-1{fill:#222c3d;}.cls-2{font-size:24.14px;fill:#d79980;font-family:SourceCodePro-Regular, SourceCodePro Regular;letter-spacing:0.1em;}</style></defs><title>Ресурс 1</title><g id="Слой_2" data-name="Слой 2"><g id="Layer_1" data-name="Layer 1"><path class="cls-1" d="M7.92,25.89l.52.52C.21,34.63.56,40.13.73,42.21c.26,3.46,1.91,5.11,5.15,5.11,2.6,0,4.68-1.56,4.68-6.24V6h4.16v29.7c0,6.24-1.35,12.34-8.79,12.38C2.33,48,.3,46.11,0,42.25-.44,35.72,3.5,30.35,7.92,25.89Z"/><path class="cls-1" d="M37.56,5.32c9,0,17.1,4.94,17.1,15.76,0,11-8.14,15.72-17.1,15.76S20.5,32.12,20.5,21.08C20.5,10.26,28.64,5.32,37.56,5.32ZM24.83,21.08c0,11.3,6.28,15.11,12.73,15.11s12.77-3.81,12.77-15.11S44.05,6,37.56,6,24.83,9.83,24.83,21.08Zm7.25-19A2.11,2.11,0,0,1,34.16,0a2.08,2.08,0,0,1,2.08,2.08,2.05,2.05,0,0,1-2.08,2.08A2.08,2.08,0,0,1,32.08,2.08Zm6.79,0A2.11,2.11,0,0,1,41,0,2.08,2.08,0,0,1,43,2.08,2.05,2.05,0,0,1,41,4.16,2.08,2.08,0,0,1,38.87,2.08Z"/><path class="cls-1" d="M64.56,6V20.13h3.85c.82,0,1.6,0,2.38.09L79.62,6h.82L71.57,20.3c9.52,1.17,11.6,7.23,11.6,15.85H78.45c0-7.32-.17-15.41-9.56-15.41H64.56V36.11H60.44V6Z"/><path class="cls-1" d="M111.7,35.46v.69H90V6h4.16V35.46Z"/><path class="cls-1" d="M125.31,6h4.46L141.5,36.15h-4.42l-4.8-12.34H119.94L115.7,36.15h-.78Zm-5.11,17.1H132L125.74,6.93Z"/><text class="cls-2" transform="translate(159.53 36.15)">naming</text></g></g></svg>